<svg width="632" height="754" viewBox="0 0 632 754" fill="none" xmlns="http://www.w3.org/2000/svg">
<path fill-rule="evenodd" clip-rule="evenodd" d="M321.37 0.210636C412.107 5.33785 488.576 86.3424 548.065 151.328C597.467 205.294 607.644 265.038 626.96 334.036C645.091 398.798 598.318 460.9 591.194 527.553C582.272 611.041 667.801 638.222 608.912 701C544.078 770.115 448.912 750 347.912 750C252.155 743.849 115.874 776.616 46.9119 713.5C-12.9419 658.721 90.5718 553.225 74.9111 475.867C60.2034 403.217 -16.8557 401.737 4.68571 330.628C27.2817 256.037 102.26 208.822 157.364 151.328C219.15 86.8624 229.523 -4.97926 321.37 0.210636Z" fill="#B87A41" fill-opacity="0.65"/>
</svg>
