<svg width="328" height="278" viewBox="0 0 328 278" fill="none" xmlns="http://www.w3.org/2000/svg">
<path fill-rule="evenodd" clip-rule="evenodd" d="M12.5 221C-1.02507 241.953 12.5 221 27.9923 245.719C43.4847 270.438 27.9923 254 58 268.5C88.0076 283 64.5 268.5 87 268.5C120.465 279.359 87 268.5 115 268.5C143 268.5 135.832 268.032 147 268.5C162.708 242.547 146 280 180.5 268.5C215 257.001 198.483 260.179 175.332 237.536C153.59 216.27 133.621 257.349 105.667 245.719C76.3442 233.519 75.9747 155.386 46.3753 155.614C13.187 155.87 27.8057 196.278 12.5 221Z" fill="#CFA47C"/>
<path fill-rule="evenodd" clip-rule="evenodd" d="M30.7238 145.427C4.45171 121.582 7.88219 115.603 7.88219 88.0514C7.88219 60.5001 7.88231 58.5001 13.5 35.5001C19.1178 12.5001 33.7846 29.3458 43.5 12.9433C79 12.9433 43.5 12.9433 79 5.50013C109.195 -0.830815 88.1092 10.6173 98.4999 5.50013C139.814 21.8853 109 5.50014 148 5.50014C187 5.50014 148 5.50014 181.5 12.9437C181.689 40.9417 203.094 62.7273 187.576 84.8026C171.298 107.959 121.891 75.7918 92.8757 88.0519C60.3422 101.798 70.4122 160.891 30.7238 145.427Z" fill="#925300"/>
<path fill-rule="evenodd" clip-rule="evenodd" d="M268.307 5.23417C277.688 -12.2282 261.755 -5.48132 281.5 5.23408C301.245 15.9495 278.235 -0.0606001 295 16.0001C282.119 6.6903 311.765 32.0608 295 16.0001C313.753 33.9662 283.745 6.05911 298 19.7153C312.255 33.3715 302.353 23.2346 306.5 30.5001C316.773 48.5001 327.429 27.7667 316.5 48.5001C305.571 69.2334 316.5 48.5001 316.5 69.1072C294.805 63.1548 316.5 69.1072 316.5 85.3337C298.271 70.6722 229.373 105.182 219.366 85.3335C208.146 63.0779 257.015 25.4025 268.307 5.23417Z" fill="#CFA47C"/>
<path fill-rule="evenodd" clip-rule="evenodd" d="M165.006 268.47C211.5 268.47 205 273.354 230 273.354C255 273.354 227.149 279.408 259 268.47C290.851 257.533 270.034 263.004 290.851 257.533C324.174 241.888 275.171 258.892 300.5 247C332.566 231.945 309.381 229.879 319 220.688C319.867 174.268 319 221.688 319 175.5C319 129.312 319 170.5 319 146.789C290.851 146.789 319.904 136.942 290.851 146.789C260.375 157.118 274.577 194.476 249.781 220.688C221.979 250.078 166.12 223.951 165.006 268.47Z" fill="#925300"/>
<path d="M12.314 169.86C201 229.5 -41.4387 -34.4234 195.5 8.7738" stroke="#E5AC02" stroke-width="5"/>
<path d="M158.082 -6.10806C157.422 126.301 310.478 -18.6307 323.379 153.162" stroke="#E5AC02" stroke-width="5"/>
</svg>
