<svg width="811" height="861" viewBox="0 0 811 861" fill="none" xmlns="http://www.w3.org/2000/svg">
<path fill-rule="evenodd" clip-rule="evenodd" d="M448.224 859.92C333.738 865.648 307.141 737.439 231.588 671.184C156.035 604.929 -0.643069 643.096 0.196597 563.057C1.03626 483.018 150.68 411.317 151.938 334.667C153.513 238.658 31.8956 184.322 32.9212 86.5602C33.8089 1.94728 278.301 155.958 369.323 155.958C482.301 112.968 616.66 -48.5307 710.499 14.4104C791.943 69.0382 674.173 202.101 702.749 288.015C729.585 368.699 826.482 360.568 807.64 444.117C787.876 531.758 664.195 559.778 601.654 632.13C531.531 713.254 564.11 854.121 448.224 859.92Z" fill="#CFA47C"/>
</svg>
