<svg width="801" height="929" viewBox="0 0 801 929" fill="none" xmlns="http://www.w3.org/2000/svg">
<path fill-rule="evenodd" clip-rule="evenodd" d="M405.521 0.499995C537.434 8.12679 569.16 183.1 655.645 279.766C727.466 360.042 765.948 356.365 794.03 459C820.388 555.335 757.388 548.352 747.032 647.5C734.06 771.69 832.645 803.617 747.032 897C652.778 999.809 552.334 820.5 405.5 820.5C266.29 811.35 175.284 990.885 75.0271 897C-11.9879 815.515 131.79 740.571 109.023 625.5C87.6411 517.432 -25.793 533.276 5.52375 427.5C38.3737 316.545 86.3727 264.625 166.483 179.101C256.307 83.2088 271.995 -7.22003 405.521 0.499995Z" fill="#915315" fill-opacity="0.65"/>
</svg>
