<svg width="845" height="926" viewBox="0 0 845 926" fill="none" xmlns="http://www.w3.org/2000/svg">
<path fill-rule="evenodd" clip-rule="evenodd" d="M429.688 0.258982C551.353 6.56303 653.887 106.16 733.653 186.061C799.894 252.415 813.54 325.871 839.441 410.706C863.751 490.333 801.035 566.688 791.483 648.641C779.52 751.292 894.202 784.711 815.24 861.898C728.308 946.877 600.703 922.145 465.277 922.145C336.881 914.582 154.148 954.87 61.6794 877.267C-18.5759 809.915 120.221 680.206 99.2222 585.091C79.5014 495.766 -23.8237 493.947 5.06018 406.516C35.3581 314.804 135.893 256.752 209.78 186.061C292.626 106.8 306.535 -6.12214 429.688 0.258982Z" fill="#B87A41"/>
</svg>
